<?xml version="1.0" encoding="utf-8"?>
<!-- Generator: Adobe Illustrator 25.4.1, SVG Export Plug-In . SVG Version: 6.00 Build 0)  -->
<svg version="1.1" xmlns="http://www.w3.org/2000/svg" xmlns:xlink="http://www.w3.org/1999/xlink" x="0px" y="0px"
	 viewBox="0 0 147.67 237.82" style="enable-background:new 0 0 147.67 237.82;" xml:space="preserve">
<style type="text/css">
	.st0{fill:none;}
	.st1{fill:#231F20;}
	.st2{fill:none;stroke:#231F20;stroke-width:0.72;}
	.st3{fill:#F9FBFC;}
	.st4{fill:url(#SVGID_1_);}
	.st5{fill:url(#SVGID_00000042720647359842617750000013067806734901548459_);}
	.st6{opacity:0.5;fill:url(#SVGID_00000168819472171798524990000009680291115908642699_);}
	.st7{fill:url(#SVGID_00000023258951424603843900000006726150770939200642_);}
	.st8{fill:url(#SVGID_00000137094673157343845500000004661172431956056461_);}
	.st9{fill:url(#SVGID_00000137823754628720587940000015178470804104928658_);}
	.st10{fill:url(#SVGID_00000161630213838084880070000012601382557393088418_);}
	.st11{opacity:0.5;}
	.st12{fill:url(#SVGID_00000137832548518223886470000017956661639996648350_);}
</style>
<pattern  x="1.09" y="-140.28" width="28.8" height="28.8" patternUnits="userSpaceOnUse" id="_x31_0_dpi_20_x25_" viewBox="1.44 -30.24 28.8 28.8" style="overflow:visible;">
	<g>
		<rect id="XMLID_186_" x="1.44" y="-30.24" class="st0" width="28.8" height="28.8"/>
		<g id="XMLID_177_">
			<path id="XMLID_185_" class="st1" d="M30.24,0c0.8,0,1.44-0.64,1.44-1.44c0-0.79-0.64-1.44-1.44-1.44c-0.8,0-1.44,0.64-1.44,1.44
				C28.8-0.64,29.44,0,30.24,0z"/>
			<path id="XMLID_184_" class="st1" d="M15.84,0c0.8,0,1.44-0.64,1.44-1.44c0-0.79-0.65-1.44-1.44-1.44c-0.8,0-1.44,0.64-1.44,1.44
				C14.4-0.64,15.04,0,15.84,0z"/>
			<path id="XMLID_183_" class="st1" d="M30.24-14.4c0.8,0,1.44-0.65,1.44-1.44c0-0.8-0.64-1.44-1.44-1.44
				c-0.8,0-1.44,0.64-1.44,1.44C28.8-15.04,29.44-14.4,30.24-14.4z"/>
			<path id="XMLID_182_" class="st1" d="M15.84-14.4c0.8,0,1.44-0.65,1.44-1.44c0-0.8-0.65-1.44-1.44-1.44
				c-0.8,0-1.44,0.64-1.44,1.44C14.4-15.04,15.04-14.4,15.84-14.4z"/>
			<path id="XMLID_181_" class="st1" d="M8.64-7.2c0.79,0,1.44-0.64,1.44-1.44c0-0.8-0.65-1.44-1.44-1.44
				c-0.8,0-1.44,0.64-1.44,1.44C7.2-7.84,7.84-7.2,8.64-7.2z"/>
			<path id="XMLID_180_" class="st1" d="M23.04-7.2c0.79,0,1.44-0.64,1.44-1.44c0-0.8-0.65-1.44-1.44-1.44
				c-0.8,0-1.44,0.64-1.44,1.44C21.6-7.84,22.24-7.2,23.04-7.2z"/>
			<path id="XMLID_179_" class="st1" d="M8.64-21.6c0.79,0,1.44-0.64,1.44-1.44c0-0.8-0.65-1.44-1.44-1.44
				c-0.8,0-1.44,0.64-1.44,1.44C7.2-22.24,7.84-21.6,8.64-21.6z"/>
			<path id="XMLID_178_" class="st1" d="M23.04-21.6c0.79,0,1.44-0.64,1.44-1.44c0-0.8-0.65-1.44-1.44-1.44
				c-0.8,0-1.44,0.64-1.44,1.44C21.6-22.24,22.24-21.6,23.04-21.6z"/>
		</g>
		<g id="XMLID_174_">
			<path id="XMLID_176_" class="st1" d="M1.44,0c0.79,0,1.44-0.64,1.44-1.44c0-0.79-0.64-1.44-1.44-1.44C0.64-2.88,0-2.23,0-1.44
				C0-0.64,0.64,0,1.44,0z"/>
			<path id="XMLID_175_" class="st1" d="M1.44-14.4c0.79,0,1.44-0.65,1.44-1.44c0-0.8-0.64-1.44-1.44-1.44
				c-0.8,0-1.44,0.64-1.44,1.44C0-15.04,0.64-14.4,1.44-14.4z"/>
		</g>
		<g id="XMLID_171_">
			<path id="XMLID_173_" class="st1" d="M30.24-28.8c0.8,0,1.44-0.64,1.44-1.44c0-0.8-0.64-1.44-1.44-1.44
				c-0.8,0-1.44,0.64-1.44,1.44C28.8-29.45,29.44-28.8,30.24-28.8z"/>
			<path id="XMLID_172_" class="st1" d="M15.84-28.8c0.8,0,1.44-0.64,1.44-1.44c0-0.8-0.65-1.44-1.44-1.44
				c-0.8,0-1.44,0.64-1.44,1.44C14.4-29.45,15.04-28.8,15.84-28.8z"/>
		</g>
		<g id="XMLID_169_">
			<path id="XMLID_170_" class="st1" d="M1.44-28.8c0.79,0,1.44-0.64,1.44-1.44c0-0.8-0.64-1.44-1.44-1.44
				c-0.8,0-1.44,0.64-1.44,1.44C0-29.45,0.64-28.8,1.44-28.8z"/>
		</g>
	</g>
</pattern>
<pattern  x="1.09" y="-140.28" width="72" height="72" patternUnits="userSpaceOnUse" id="_x31_0_lpi_10_x25_" viewBox="72.25 -72 72 72" style="overflow:visible;">
	<g>
		<rect id="XMLID_221_" x="72.25" y="-72" class="st0" width="72" height="72"/>
		<g id="XMLID_210_">
			<line id="XMLID_220_" class="st2" x1="144" y1="-3.6" x2="216.5" y2="-3.6"/>
			<line id="XMLID_219_" class="st2" x1="144" y1="-18" x2="216.5" y2="-18"/>
			<line id="XMLID_218_" class="st2" x1="144" y1="-32.4" x2="216.5" y2="-32.4"/>
			<line id="XMLID_217_" class="st2" x1="144" y1="-46.8" x2="216.5" y2="-46.8"/>
			<line id="XMLID_216_" class="st2" x1="144" y1="-61.2" x2="216.5" y2="-61.2"/>
			<line id="XMLID_215_" class="st2" x1="144" y1="-10.8" x2="216.5" y2="-10.8"/>
			<line id="XMLID_214_" class="st2" x1="144" y1="-25.2" x2="216.5" y2="-25.2"/>
			<line id="XMLID_213_" class="st2" x1="144" y1="-39.6" x2="216.5" y2="-39.6"/>
			<line id="XMLID_212_" class="st2" x1="144" y1="-54" x2="216.5" y2="-54"/>
			<line id="XMLID_211_" class="st2" x1="144" y1="-68.4" x2="216.5" y2="-68.4"/>
		</g>
		<g id="XMLID_199_">
			<line id="XMLID_209_" class="st2" x1="72" y1="-3.6" x2="144.5" y2="-3.6"/>
			<line id="XMLID_208_" class="st2" x1="72" y1="-18" x2="144.5" y2="-18"/>
			<line id="XMLID_207_" class="st2" x1="72" y1="-32.4" x2="144.5" y2="-32.4"/>
			<line id="XMLID_206_" class="st2" x1="72" y1="-46.8" x2="144.5" y2="-46.8"/>
			<line id="XMLID_205_" class="st2" x1="72" y1="-61.2" x2="144.5" y2="-61.2"/>
			<line id="XMLID_204_" class="st2" x1="72" y1="-10.8" x2="144.5" y2="-10.8"/>
			<line id="XMLID_203_" class="st2" x1="72" y1="-25.2" x2="144.5" y2="-25.2"/>
			<line id="XMLID_202_" class="st2" x1="72" y1="-39.6" x2="144.5" y2="-39.6"/>
			<line id="XMLID_201_" class="st2" x1="72" y1="-54" x2="144.5" y2="-54"/>
			<line id="XMLID_200_" class="st2" x1="72" y1="-68.4" x2="144.5" y2="-68.4"/>
		</g>
		<g id="XMLID_188_">
			<line id="XMLID_198_" class="st2" x1="0" y1="-3.6" x2="72.5" y2="-3.6"/>
			<line id="XMLID_197_" class="st2" x1="0" y1="-18" x2="72.5" y2="-18"/>
			<line id="XMLID_196_" class="st2" x1="0" y1="-32.4" x2="72.5" y2="-32.4"/>
			<line id="XMLID_195_" class="st2" x1="0" y1="-46.8" x2="72.5" y2="-46.8"/>
			<line id="XMLID_194_" class="st2" x1="0" y1="-61.2" x2="72.5" y2="-61.2"/>
			<line id="XMLID_193_" class="st2" x1="0" y1="-10.8" x2="72.5" y2="-10.8"/>
			<line id="XMLID_192_" class="st2" x1="0" y1="-25.2" x2="72.5" y2="-25.2"/>
			<line id="XMLID_191_" class="st2" x1="0" y1="-39.6" x2="72.5" y2="-39.6"/>
			<line id="XMLID_190_" class="st2" x1="0" y1="-54" x2="72.5" y2="-54"/>
			<line id="XMLID_189_" class="st2" x1="0" y1="-68.4" x2="72.5" y2="-68.4"/>
		</g>
	</g>
</pattern>
<g id="PRINT_2">
</g>
<g id="PRINT_1">
	<g>
		
			<rect x="-53.57" y="36.57" transform="matrix(-1.836970e-16 1 -1 -1.836970e-16 192.745 45.071)" class="st3" width="254.82" height="164.67"/>
		
			<linearGradient id="SVGID_1_" gradientUnits="userSpaceOnUse" x1="284.4852" y1="-36.6914" x2="347.8525" y2="-36.6914" gradientTransform="matrix(0.6476 -0.7619 0.7619 0.6476 -104.3669 337.6373)">
			<stop  offset="0" style="stop-color:#FFFFFF"/>
			<stop  offset="1" style="stop-color:#BFC1BF"/>
		</linearGradient>
		<path class="st4" d="M156.18,102.59v12.21L56.52,34.24c-17.27-13.95-43.3-12.13-58.16,4.06l-6.86,7.47V27.87l2.66-2.9
			C9.68,8.05,36.87,6.16,54.9,20.73L156.18,102.59z"/>
		<g>
			
				<linearGradient id="SVGID_00000120529227042050787090000010166414355857307304_" gradientUnits="userSpaceOnUse" x1="562.3162" y1="103.402" x2="685.306" y2="103.402" gradientTransform="matrix(-0.2918 -0.9565 0.9565 -0.2918 213.845 666.005)">
				<stop  offset="0" style="stop-color:#FB5507"/>
				<stop  offset="1" style="stop-color:#FFBF0B"/>
			</linearGradient>
			<path style="fill:url(#SVGID_00000120529227042050787090000010166414355857307304_);" d="M156.18-8.5V95.69l-20.73-16.76
				c7.77-16.6,3.52-36.68-11.88-49.14L76.19-8.5H156.18z"/>
			
				<pattern  id="SVGID_00000175289891923944868890000006950136839194769547_" xlink:href="#_x31_0_lpi_10_x25_" patternTransform="matrix(1.0407 0 0 0.9765 269.6219 -268.1117)">
			</pattern>
			<path style="opacity:0.5;fill:url(#SVGID_00000175289891923944868890000006950136839194769547_);" d="M156.18-8.5V95.69
				l-20.73-16.76c7.77-16.6,3.52-36.68-11.88-49.14L76.19-8.5H156.18z"/>
		</g>
		
			<linearGradient id="SVGID_00000091695653384723775710000002679470466574880943_" gradientUnits="userSpaceOnUse" x1="495.8744" y1="41.1637" x2="604.9304" y2="41.1637" gradientTransform="matrix(-0.1579 -0.9875 0.9875 -0.1579 111.3548 584.9761)">
			<stop  offset="0" style="stop-color:#290466"/>
			<stop  offset="1" style="stop-color:#3887FE"/>
		</linearGradient>
		<path style="fill:url(#SVGID_00000091695653384723775710000002679470466574880943_);" d="M135.45,78.93l-82.4-66.61
			C34.96-2.31,8.04-1.1-8.5,14.6V-8.5h84.69l47.37,38.29C138.96,42.25,143.22,62.33,135.45,78.93z"/>
		
			<linearGradient id="SVGID_00000081642871731978549710000009086234564793817005_" gradientUnits="userSpaceOnUse" x1="57.2736" y1="7.7764" x2="202.2149" y2="7.7764" gradientTransform="matrix(0.9699 -0.2434 0.2434 0.9699 -55.3538 83.533)">
			<stop  offset="0" style="stop-color:#290466"/>
			<stop  offset="1" style="stop-color:#3887FE"/>
		</linearGradient>
		<path style="fill:url(#SVGID_00000081642871731978549710000009086234564793817005_);" d="M156.18,95.69v13.96L54.9,27.79
			C36.87,13.22,9.68,15.11-5.84,32.03l-2.66,2.9V14.6C8.04-1.1,34.96-2.31,53.04,12.32l82.4,66.61L156.18,95.69z"/>
		
			<linearGradient id="SVGID_00000047759226410883821540000006107235984367040432_" gradientUnits="userSpaceOnUse" x1="473.8298" y1="628.6396" x2="638.2292" y2="628.6396" gradientTransform="matrix(-0.9999 -0.0169 0.0169 -0.9999 619.0367 841.4988)">
			<stop  offset="0" style="stop-color:#290466"/>
			<stop  offset="1" style="stop-color:#3887FE"/>
		</linearGradient>
		<path style="fill:url(#SVGID_00000047759226410883821540000006107235984367040432_);" d="M156.18,162.13v25.18l-14.91,37
			c-3.88,9.66-11.07,17.23-19.91,22.01H73.68L-8.5,217.16v-15.07l89.71,31.83c22.25,7.9,47.1-2.63,55.51-23.51L156.18,162.13z"/>
		<g>
			
				<linearGradient id="SVGID_00000147186147558400493110000009043750420888601014_" gradientUnits="userSpaceOnUse" x1="-8.5039" y1="216.8097" x2="156.1759" y2="216.8097">
				<stop  offset="0" style="stop-color:#FB5507"/>
				<stop  offset="1" style="stop-color:#FFBF0B"/>
			</linearGradient>
			<path style="fill:url(#SVGID_00000147186147558400493110000009043750420888601014_);" d="M-8.5,246.32h82.18L-8.5,217.16V246.32z
				 M141.26,224.3c-3.88,9.66-11.07,17.23-19.91,22.01h34.82V187.3L141.26,224.3z"/>
			<g class="st11">
				
					<pattern  id="SVGID_00000004527056879872739380000014946704645087641484_" xlink:href="#_x31_0_dpi_20_x25_" patternTransform="matrix(1.0407 0 0 0.9765 302.4672 -224.9463)"  class="st11">
				</pattern>
				<path style="fill:url(#SVGID_00000004527056879872739380000014946704645087641484_);" d="M-8.5,246.32h82.18L-8.5,217.16V246.32
					z M141.26,224.3c-3.88,9.66-11.07,17.23-19.91,22.01h34.82V187.3L141.26,224.3z"/>
			</g>
		</g>
	</g>
</g>
</svg>
